<svg width="40" height="40" viewBox="0 0 40 40" fill="none" xmlns="http://www.w3.org/2000/svg">
<path d="M26 16.0018C26 14.4105 25.3679 12.8844 24.2426 11.7592C23.1174 10.634 21.5913 10.0018 20 10.0018C18.4087 10.0018 16.8826 10.634 15.7574 11.7592C14.6321 12.8844 14 14.4105 14 16.0018C14 23.0018 11 25.0018 11 25.0018H29C29 25.0018 26 23.0018 26 16.0018Z" stroke="white" stroke-width="2" stroke-linecap="round" stroke-linejoin="round"/>
<path d="M21.73 29.0018C21.5542 29.3049 21.3019 29.5565 20.9982 29.7314C20.6946 29.9062 20.3504 29.9983 20 29.9983C19.6496 29.9983 19.3054 29.9062 19.0018 29.7314C18.6982 29.5565 18.4458 29.3049 18.27 29.0018" stroke="white" stroke-width="2" stroke-linecap="round" stroke-linejoin="round"/>
</svg>
