<svg width="24" height="24" viewBox="0 0 24 24" fill="none" xmlns="http://www.w3.org/2000/svg">
<path d="M8.30771 20.5C7.8106 20.5 7.38504 20.323 7.03104 19.9689C6.67702 19.6149 6.50001 19.1894 6.50001 18.6923V16.5H4.59619C4.09907 16.5 3.67351 16.323 3.31951 15.9689C2.96551 15.6149 2.78851 15.1894 2.78851 14.6923V10.8077C2.78851 10.0993 3.0305 9.50561 3.51446 9.02644C3.99843 8.54729 4.58976 8.30771 5.28846 8.30771H18.7115C19.4198 8.30771 20.0136 8.54729 20.4927 9.02644C20.9719 9.50561 21.2115 10.0993 21.2115 10.8077V14.6923C21.2115 15.1894 21.0345 15.6149 20.6805 15.9689C20.3265 16.323 19.9009 16.5 19.4038 16.5H17.5V18.6923C17.5 19.1894 17.323 19.6149 16.9689 19.9689C16.6149 20.323 16.1894 20.5 15.6923 20.5H8.30771ZM4.59619 15H6.50001C6.51285 14.5141 6.69438 14.0977 7.04461 13.751C7.39485 13.4042 7.81588 13.2308 8.30771 13.2308H15.6923C16.1841 13.2308 16.6051 13.4042 16.9554 13.751C17.3056 14.0977 17.4871 14.5141 17.5 15H19.4038C19.4935 15 19.5673 14.9711 19.625 14.9134C19.6827 14.8557 19.7115 14.782 19.7115 14.6923V10.8077C19.7115 10.5243 19.6157 10.2868 19.424 10.0952C19.2323 9.9035 18.9948 9.80766 18.7115 9.80766H5.28846C5.00513 9.80766 4.76763 9.9035 4.57596 10.0952C4.3843 10.2868 4.28846 10.5243 4.28846 10.8077V14.6923C4.28846 14.782 4.31731 14.8557 4.37501 14.9134C4.43271 14.9711 4.50644 15 4.59619 15ZM16 8.30771V5.61541C16 5.52566 15.9711 5.45194 15.9134 5.39424C15.8557 5.33656 15.782 5.30771 15.6923 5.30771H8.30771C8.21796 5.30771 8.14424 5.33656 8.08654 5.39424C8.02884 5.45194 7.99999 5.52566 7.99999 5.61541V8.30771H6.50001V5.61541C6.50001 5.11831 6.67702 4.69276 7.03104 4.33874C7.38504 3.98474 7.8106 3.80774 8.30771 3.80774H15.6923C16.1894 3.80774 16.6149 3.98474 16.9689 4.33874C17.323 4.69276 17.5 5.11831 17.5 5.61541V8.30771H16ZM16 18.6923V15.0385C16 14.9487 15.9711 14.875 15.9134 14.8173C15.8557 14.7596 15.782 14.7307 15.6923 14.7307H8.30771C8.21796 14.7307 8.14424 14.7596 8.08654 14.8173C8.02884 14.875 7.99999 14.9487 7.99999 15.0385V18.6923C7.99999 18.782 8.02884 18.8557 8.08654 18.9134C8.14424 18.9711 8.21796 19 8.30771 19H15.6923C15.782 19 15.8557 18.9711 15.9134 18.9134C15.9711 18.8557 16 18.782 16 18.6923ZM4.59619 9.80766H4.28846H19.7115H4.59619Z" fill="#1D2E4B"/>
</svg>
